# xmcd
#
# Track frame offsets:
#	150
#	14019
#	27219
#	45299
#	57479
#	71455
#	83827
#	102471
#	123893
#	136969
#	151673
#
# Disc length: 2227 seconds
#
# Revision: 1
# Processed by: cddbd v1.5.1PL0 Copyright (c) Steve Scherf et al.
# Submitted via: EasyCDDAExtractor 5.1.0
#
DISCID=8608b10b
DTITLE=The New Tradition - The New Tradition 
DYEAR=1900
DGENRE=Bluegrass
TTITLE0=Can't You Hear Me Calling
TTITLE1=I Saw Her Standing There
TTITLE2=Follow Your Dreams
TTITLE3=Runaway Heart
TTITLE4=Love Here Today
TTITLE5=No Part Of Nothing
TTITLE6=Dyin' On The Vine
TTITLE7=Colorado
TTITLE8=Kaw-Liga
TTITLE9=My Baby's Gone
TTITLE10=Don't Give Your Heart To a Rambler
EXTD=
EXTT0=
EXTT1=
EXTT2=
EXTT3=
EXTT4=
EXTT5=
EXTT6=
EXTT7=
EXTT8=
EXTT9=
EXTT10=
PLAYORDER=
